<svg width="66" height="53" viewBox="0 0 66 53" fill="none" xmlns="http://www.w3.org/2000/svg">
<path d="M66 21.8906V23.7344C66 25.2618 64.7688 26.5 63.25 26.5H62.3333L59.3412 47.5635C58.9542 50.2884 56.6336 52.3125 53.8966 52.3125H12.1034C9.36639 52.3125 7.04584 50.2884 6.65867 47.5635L3.66667 26.5H2.75C1.2312 26.5 0 25.2618 0 23.7344V21.8906C0 20.3632 1.2312 19.125 2.75 19.125H10.4662L22.7014 2.20616C23.8925 0.559235 26.1855 0.194979 27.8234 1.39284C29.4611 2.5907 29.8232 4.89689 28.6321 6.54393L19.5338 19.125H46.4662L37.3679 6.54382C36.1768 4.89689 36.539 2.59059 38.1768 1.39273C39.8143 0.194864 42.1077 0.559005 43.2988 2.20605L55.5338 19.125H63.25C64.7688 19.125 66 20.3632 66 21.8906ZM35.75 42.1719V29.2656C35.75 27.7382 34.5188 26.5 33 26.5C31.4812 26.5 30.25 27.7382 30.25 29.2656V42.1719C30.25 43.6993 31.4812 44.9375 33 44.9375C34.5188 44.9375 35.75 43.6993 35.75 42.1719ZM48.5833 42.1719V29.2656C48.5833 27.7382 47.3521 26.5 45.8333 26.5C44.3145 26.5 43.0833 27.7382 43.0833 29.2656V42.1719C43.0833 43.6993 44.3145 44.9375 45.8333 44.9375C47.3521 44.9375 48.5833 43.6993 48.5833 42.1719ZM22.9167 42.1719V29.2656C22.9167 27.7382 21.6855 26.5 20.1667 26.5C18.6479 26.5 17.4167 27.7382 17.4167 29.2656V42.1719C17.4167 43.6993 18.6479 44.9375 20.1667 44.9375C21.6855 44.9375 22.9167 43.6993 22.9167 42.1719Z" fill="#ED8F03"/>
</svg>
