<svg width="38" height="38" viewBox="0 0 38 38" fill="none" xmlns="http://www.w3.org/2000/svg">
<g clip-path="url(#clip0_20_444)">
<path d="M30.5055 9.54823L33.859 12.9001L30.5055 9.54823ZM32.662 6.59532L23.5943 15.6631C23.1258 16.1309 22.8062 16.727 22.676 17.3762L21.8384 21.5689L26.031 20.7297C26.6802 20.5999 27.2755 20.2816 27.7442 19.813L36.812 10.7452C37.0845 10.4727 37.3006 10.1493 37.4481 9.79323C37.5955 9.43721 37.6714 9.05563 37.6714 8.67027C37.6714 8.28492 37.5955 7.90334 37.4481 7.54731C37.3006 7.19129 37.0845 6.8678 36.812 6.59532C36.5395 6.32283 36.216 6.10668 35.86 5.95921C35.5039 5.81174 35.1224 5.73584 34.737 5.73584C34.3517 5.73584 33.9701 5.81174 33.614 5.95921C33.258 6.10668 32.9345 6.32283 32.662 6.59532V6.59532Z" stroke="black" stroke-width="4" stroke-linecap="round" stroke-linejoin="round"/>
<path d="M34.5049 24.7357V29.4857C34.5049 30.3255 34.1713 31.131 33.5774 31.7248C32.9835 32.3187 32.1781 32.6523 31.3382 32.6523H13.9215C13.0817 32.6523 12.2762 32.3187 11.6824 31.7248C11.0885 31.131 10.7549 30.3255 10.7549 29.4857V12.069C10.7549 11.2292 11.0885 10.4237 11.6824 9.82984C12.2762 9.23597 13.0817 8.90234 13.9215 8.90234H18.6715" stroke="black" stroke-width="4" stroke-linecap="round" stroke-linejoin="round"/>
</g>
<defs>
<clipPath id="clip0_20_444">
<rect width="38" height="38" fill="white"/>
</clipPath>
</defs>
</svg>
