<svg width="64" height="64" viewBox="0 0 64 64" fill="none" xmlns="http://www.w3.org/2000/svg">
<path d="M18.3282 45.6773C13.4082 42.1839 9.51486 37.6399 7.31486 34.7706C6.69967 33.9785 6.36572 33.0042 6.36572 32.0013C6.36572 30.9983 6.69967 30.024 7.31486 29.2319C11.2962 24.0346 20.8482 13.3333 32.0002 13.3333C37.0029 13.3333 41.6802 15.4853 45.6802 18.3306" stroke="#ED8F03" stroke-width="5" stroke-linecap="round" stroke-linejoin="round"/>
<path d="M26.667 49.8773C28.3982 50.3926 30.1941 50.6584 32.0003 50.6666C43.1523 50.6666 52.7043 39.9653 56.6857 34.768C57.3007 33.9752 57.6343 33.0002 57.6338 31.9968C57.6333 30.9935 57.2988 30.0188 56.683 29.2266C55.2838 27.4013 53.7827 25.6563 52.187 24M37.6803 26.3653C36.9398 25.6124 36.0575 25.0136 35.0844 24.6034C34.1112 24.1932 33.0665 23.9797 32.0104 23.9753C30.9544 23.9709 29.9079 24.1756 28.9314 24.5776C27.9549 24.9796 27.0676 25.571 26.3207 26.3177C25.5739 27.0644 24.9823 27.9515 24.58 28.9279C24.1778 29.9044 23.9728 30.9508 23.977 32.0069C23.9812 33.0629 24.1944 34.1077 24.6044 35.0809C25.0143 36.0541 25.6129 36.9366 26.3657 37.6773L37.6803 26.3653ZM10.667 53.3333L53.3337 10.6666L10.667 53.3333Z" stroke="#ED8F03" stroke-width="5" stroke-linecap="round" stroke-linejoin="round"/>
</svg>
