<svg width="59" height="59" viewBox="0 0 59 59" fill="none" xmlns="http://www.w3.org/2000/svg">
<path fill-rule="evenodd" clip-rule="evenodd" d="M17.338 0.177C20.4837 0.0321818 21.4867 0 29.5 0C37.5133 0 38.5163 0.0348636 41.6594 0.177C44.8025 0.319136 46.9479 0.820636 48.8252 1.54741C50.791 2.29027 52.5744 3.4515 54.0494 4.95332C55.5512 6.42564 56.7097 8.20636 57.4499 10.1748C58.1794 12.0521 58.6782 14.1975 58.823 17.3353C58.9678 20.4864 59 21.4894 59 29.5C59 37.5133 58.9651 38.5163 58.823 41.662C58.6809 44.7998 58.1794 46.9452 57.4499 48.8225C56.7097 50.7912 55.5493 52.5749 54.0494 54.0494C52.5744 55.5512 50.791 56.7097 48.8252 57.4499C46.9479 58.1794 44.8025 58.6782 41.6647 58.823C38.5163 58.9678 37.5133 59 29.5 59C21.4867 59 20.4837 58.9651 17.338 58.823C14.2002 58.6809 12.0548 58.1794 10.1775 57.4499C8.20883 56.7096 6.42515 55.5492 4.95064 54.0494C3.44984 52.5762 2.28844 50.7933 1.54741 48.8252C0.820636 46.9479 0.321818 44.8025 0.177 41.6647C0.0321818 38.5136 0 37.5106 0 29.5C0 21.4867 0.0348636 20.4837 0.177 17.3406C0.319136 14.1975 0.820636 12.0521 1.54741 10.1748C2.28953 8.20658 3.45182 6.42379 4.95332 4.95064C6.42574 3.45016 8.20763 2.28878 10.1748 1.54741C12.0521 0.820636 14.1975 0.321818 17.3353 0.177H17.338ZM41.4207 5.487C38.3098 5.34486 37.3765 5.31536 29.5 5.31536C21.6235 5.31536 20.6902 5.34486 17.5793 5.487C14.7017 5.61841 13.1409 6.09845 12.1004 6.50341C10.7246 7.03977 9.74036 7.67536 8.70786 8.70786C7.72912 9.66005 6.97589 10.8192 6.50341 12.1004C6.09845 13.1409 5.61841 14.7017 5.487 17.5793C5.34486 20.6902 5.31536 21.6235 5.31536 29.5C5.31536 37.3765 5.34486 38.3098 5.487 41.4207C5.61841 44.2983 6.09845 45.8591 6.50341 46.8996C6.97541 48.1789 7.729 49.3401 8.70786 50.2921C9.65991 51.271 10.8211 52.0246 12.1004 52.4966C13.1409 52.9015 14.7017 53.3816 17.5793 53.513C20.6902 53.6551 21.6208 53.6846 29.5 53.6846C37.3792 53.6846 38.3098 53.6551 41.4207 53.513C44.2983 53.3816 45.8591 52.9015 46.8996 52.4966C48.2754 51.9602 49.2596 51.3246 50.2921 50.2921C51.271 49.3401 52.0246 48.1789 52.4966 46.8996C52.9015 45.8591 53.3816 44.2983 53.513 41.4207C53.6551 38.3098 53.6846 37.3765 53.6846 29.5C53.6846 21.6235 53.6551 20.6902 53.513 17.5793C53.3816 14.7017 52.9015 13.1409 52.4966 12.1004C51.9602 10.7246 51.3246 9.74036 50.2921 8.70786C49.3399 7.72919 48.1808 6.97597 46.8996 6.50341C45.8591 6.09845 44.2983 5.61841 41.4207 5.487V5.487ZM25.732 38.594C27.8364 39.47 30.1795 39.5882 32.3613 38.9285C34.5431 38.2688 36.4282 36.8721 37.6946 34.9769C38.961 33.0818 39.5301 30.8057 39.3049 28.5375C39.0796 26.2693 38.0738 24.1497 36.4593 22.5407C35.4301 21.5121 34.1857 20.7246 32.8156 20.2347C31.4455 19.7448 29.9839 19.5648 28.5359 19.7077C27.0879 19.8505 25.6895 20.3126 24.4416 21.0607C23.1936 21.8088 22.127 22.8243 21.3186 24.0341C20.5102 25.2438 19.9801 26.6178 19.7664 28.0571C19.5527 29.4963 19.6608 30.9651 20.0829 32.3575C20.505 33.75 21.2306 35.0315 22.2074 36.1099C23.1842 37.1883 24.388 38.0367 25.732 38.594ZM18.7781 18.7781C20.1861 17.3701 21.8577 16.2532 23.6973 15.4912C25.537 14.7291 27.5088 14.3369 29.5 14.3369C31.4912 14.3369 33.463 14.7291 35.3027 15.4912C37.1423 16.2532 38.8139 17.3701 40.2219 18.7781C41.6299 20.1861 42.7468 21.8577 43.5088 23.6973C44.2709 25.537 44.6631 27.5088 44.6631 29.5C44.6631 31.4912 44.2709 33.463 43.5088 35.3027C42.7468 37.1423 41.6299 38.8139 40.2219 40.2219C37.3783 43.0655 33.5215 44.6631 29.5 44.6631C25.4785 44.6631 21.6217 43.0655 18.7781 40.2219C15.9345 37.3783 14.3369 33.5215 14.3369 29.5C14.3369 25.4785 15.9345 21.6217 18.7781 18.7781V18.7781ZM48.026 16.5951C48.3749 16.2659 48.6542 15.8701 48.8475 15.4311C49.0407 14.9921 49.1438 14.5187 49.1508 14.0391C49.1578 13.5595 49.0685 13.0834 48.8882 12.6389C48.7078 12.1944 48.4402 11.7906 48.101 11.4515C47.7618 11.1123 47.358 10.8446 46.9136 10.6643C46.4691 10.484 45.9929 10.3947 45.5133 10.4017C45.0337 10.4086 44.5604 10.5118 44.1213 10.705C43.6823 10.8982 43.2865 11.1775 42.9574 11.5265C42.3172 12.205 41.9668 13.1064 41.9804 14.0391C41.994 14.9719 42.3706 15.8626 43.0302 16.5223C43.6898 17.1819 44.5806 17.5585 45.5133 17.5721C46.4461 17.5857 47.3474 17.2352 48.026 16.5951V16.5951Z" fill="#ED8F03"/>
</svg>
