<svg width="59" height="59" viewBox="0 0 59 59" fill="none" xmlns="http://www.w3.org/2000/svg">
<path fill-rule="evenodd" clip-rule="evenodd" d="M7.29614e-07 4.92919C7.29614e-07 3.62189 0.519324 2.36813 1.44372 1.44373C2.36813 0.519329 3.62188 6.57129e-06 4.92918 6.57129e-06H54.0655C54.7133 -0.00105154 55.355 0.125684 55.9538 0.372958C56.5526 0.620232 57.0968 0.983187 57.5552 1.44104C58.0135 1.8989 58.3771 2.44267 58.625 3.04121C58.8729 3.63976 59.0003 4.28133 59 4.92919V54.0655C59.0007 54.7134 58.8736 55.3552 58.6261 55.954C58.3785 56.5529 58.0153 57.097 57.5572 57.5553C57.0992 58.0137 56.5552 58.3772 55.9565 58.625C55.3578 58.8729 54.7161 59.0004 54.0681 59H4.92918C4.28165 59 3.64046 58.8724 3.04225 58.6245C2.44404 58.3767 1.90053 58.0133 1.44278 57.5553C0.985024 57.0973 0.621999 56.5536 0.374442 55.9553C0.126886 55.3569 -0.000351575 54.7157 7.29614e-07 54.0681V4.92919ZM23.3533 22.4951H31.3424V26.5071C32.4956 24.2007 35.4456 22.125 39.8786 22.125C48.3773 22.125 50.3914 26.719 50.3914 35.1479V50.7615H41.7908V37.0681C41.7908 32.2676 40.6376 29.559 37.709 29.559C33.6461 29.559 31.9565 32.4795 31.9565 37.0681V50.7615H23.3533V22.4951ZM8.60327 50.394H17.2065V22.125H8.60327V50.3914V50.394ZM18.4375 12.9049C18.4537 13.6415 18.3226 14.374 18.052 15.0593C17.7813 15.7445 17.3764 16.3688 16.8612 16.8955C16.346 17.4222 15.7307 17.8407 15.0516 18.1264C14.3724 18.4121 13.6431 18.5593 12.9063 18.5593C12.1694 18.5593 11.4401 18.4121 10.7609 18.1264C10.0818 17.8407 9.46652 17.4222 8.95129 16.8955C8.43606 16.3688 8.03122 15.7445 7.76054 15.0593C7.48986 14.374 7.35878 13.6415 7.375 12.9049C7.40684 11.459 8.00358 10.0831 9.03742 9.07175C10.0713 8.06043 11.46 7.49413 12.9063 7.49413C14.3525 7.49413 15.7412 8.06043 16.7751 9.07175C17.8089 10.0831 18.4057 11.459 18.4375 12.9049V12.9049Z" fill="#ED8F03"/>
</svg>
