<svg width="56" height="64" viewBox="0 0 56 64" fill="none" xmlns="http://www.w3.org/2000/svg">
<path d="M53.4545 28.16H48.0455V10.24C48.0455 4.584 43.4875 0 37.8636 0H18.1364C12.5125 0 7.95455 4.584 7.95455 10.24V28.16H2.54545C1.1375 28.16 0 29.304 0 30.72V61.44C0 62.856 1.1375 64 2.54545 64H53.4545C54.8625 64 56 62.856 56 61.44V30.72C56 29.304 54.8625 28.16 53.4545 28.16ZM30.2273 47.12V51.36C30.2273 51.712 29.9409 52 29.5909 52H26.4091C26.0591 52 25.7727 51.712 25.7727 51.36V47.12C25.1161 46.6459 24.626 45.9744 24.373 45.2024C24.1199 44.4303 24.117 43.5973 24.3646 42.8235C24.6122 42.0496 25.0976 41.3747 25.7509 40.896C26.4042 40.4172 27.1917 40.1592 28 40.1592C28.8083 40.1592 29.5958 40.4172 30.2491 40.896C30.9024 41.3747 31.3878 42.0496 31.6354 42.8235C31.883 43.5973 31.8801 44.4303 31.627 45.2024C31.374 45.9744 30.8839 46.6459 30.2273 47.12ZM42.3182 28.16H13.6818V10.24C13.6818 7.768 15.6784 5.76 18.1364 5.76H37.8636C40.3216 5.76 42.3182 7.768 42.3182 10.24V28.16Z" fill="white"/>
</svg>
