<svg width="51" height="57" viewBox="0 0 51 57" fill="none" xmlns="http://www.w3.org/2000/svg">
<path d="M45.1634 43.0814H41.1241C40.8483 43.0814 40.5897 43.2206 40.4173 43.4658C40.0151 44.0292 39.5842 44.5727 39.1303 45.0897C37.2738 47.2333 35.0747 48.9417 32.6547 50.1202C30.1476 51.3418 27.4529 51.9684 24.7313 51.9628C21.979 51.9628 19.313 51.3398 16.8078 50.1202C14.3878 48.9417 12.1888 47.2333 10.3322 45.0897C8.47242 42.9533 6.98943 40.421 5.96543 37.6333C4.90246 34.7435 4.3681 31.6748 4.3681 28.5C4.3681 25.3253 4.9082 22.2566 5.96543 19.3668C6.98819 16.5765 8.45911 14.0645 10.3322 11.9104C12.2054 9.75636 14.383 8.05962 16.8078 6.87986C19.313 5.66032 21.979 5.0373 24.7313 5.0373C27.4835 5.0373 30.1496 5.65369 32.6547 6.87986C35.0795 8.05962 37.2571 9.75636 39.1303 11.9104C39.5842 12.434 40.0094 12.9775 40.4173 13.5343C40.5897 13.7795 40.854 13.9187 41.1241 13.9187H45.1634C45.5254 13.9187 45.7494 13.4547 45.5483 13.1034C41.1413 5.203 33.4304 -0.0264112 24.6681 0.000100338C10.9011 0.0398677 -0.136621 12.9311 0.00127818 28.7917C0.139178 44.4004 11.1596 57 24.7313 57C33.4706 57 41.147 51.7772 45.5483 43.8966C45.7437 43.5454 45.5254 43.0814 45.1634 43.0814ZM50.2714 28.0825L42.1181 20.6593C41.8136 20.3809 41.3711 20.6327 41.3711 21.0768V26.114H23.3293C23.0765 26.114 22.8696 26.3526 22.8696 26.6442V30.3559C22.8696 30.6475 23.0765 30.8861 23.3293 30.8861H41.3711V35.9233C41.3711 36.3674 41.8193 36.6192 42.1181 36.3408L50.2714 28.9176C50.3263 28.868 50.3708 28.8046 50.4013 28.7323C50.4319 28.6599 50.4478 28.5805 50.4478 28.5C50.4478 28.4196 50.4319 28.3402 50.4013 28.2678C50.3708 28.1955 50.3263 28.1321 50.2714 28.0825Z" fill="#ED8F03"/>
</svg>
