<svg width="45" height="45" viewBox="0 0 45 45" fill="none" xmlns="http://www.w3.org/2000/svg">
<path d="M40.5615 12.4629C39.9725 11.099 39.1231 9.86307 38.061 8.82425C36.9981 7.78233 35.745 6.95434 34.3696 6.38528C32.9435 5.79287 31.4139 5.48964 29.8696 5.49319C27.7031 5.49319 25.5894 6.08646 23.7524 7.20706C23.313 7.47513 22.8955 7.76956 22.5 8.09036C22.1045 7.76956 21.687 7.47513 21.2476 7.20706C19.4106 6.08646 17.2969 5.49319 15.1304 5.49319C13.5703 5.49319 12.0586 5.79202 10.6304 6.38528C9.25049 6.95657 8.00684 7.77835 6.93896 8.82425C5.87547 9.86189 5.02593 11.0981 4.43848 12.4629C3.82764 13.8824 3.51562 15.3897 3.51562 16.9409C3.51562 18.4043 3.81445 19.9292 4.40771 21.4805C4.9043 22.7769 5.61621 24.1216 6.52588 25.4795C7.96729 27.6284 9.94922 29.8696 12.4102 32.1416C16.4883 35.9077 20.5269 38.5093 20.6982 38.6148L21.7397 39.2827C22.2012 39.5772 22.7944 39.5772 23.2559 39.2827L24.2974 38.6148C24.4688 38.5049 28.5029 35.9077 32.5854 32.1416C35.0464 29.8696 37.0283 27.6284 38.4697 25.4795C39.3794 24.1216 40.0957 22.7769 40.5879 21.4805C41.1812 19.9292 41.48 18.4043 41.48 16.9409C41.4844 15.3897 41.1724 13.8824 40.5615 12.4629Z" fill="#C4C4C4"/>
</svg>
