<svg width="79" height="79" viewBox="0 0 79 79" fill="none" xmlns="http://www.w3.org/2000/svg">
<path d="M13.1667 36.2083H32.9167C33.7897 36.2083 34.6269 35.8615 35.2442 35.2442C35.8615 34.6269 36.2083 33.7897 36.2083 32.9167V13.1667C36.2083 12.2937 35.8615 11.4564 35.2442 10.8391C34.6269 10.2218 33.7897 9.875 32.9167 9.875H13.1667C12.2937 9.875 11.4564 10.2218 10.8391 10.8391C10.2218 11.4564 9.875 12.2937 9.875 13.1667V32.9167C9.875 33.7897 10.2218 34.6269 10.8391 35.2442C11.4564 35.8615 12.2937 36.2083 13.1667 36.2083ZM46.0833 36.2083H65.8333C66.7063 36.2083 67.5436 35.8615 68.1609 35.2442C68.7782 34.6269 69.125 33.7897 69.125 32.9167V13.1667C69.125 12.2937 68.7782 11.4564 68.1609 10.8391C67.5436 10.2218 66.7063 9.875 65.8333 9.875H46.0833C45.2103 9.875 44.3731 10.2218 43.7558 10.8391C43.1385 11.4564 42.7917 12.2937 42.7917 13.1667V32.9167C42.7917 33.7897 43.1385 34.6269 43.7558 35.2442C44.3731 35.8615 45.2103 36.2083 46.0833 36.2083ZM13.1667 69.125H32.9167C33.7897 69.125 34.6269 68.7782 35.2442 68.1609C35.8615 67.5436 36.2083 66.7063 36.2083 65.8333V46.0833C36.2083 45.2103 35.8615 44.3731 35.2442 43.7558C34.6269 43.1385 33.7897 42.7917 32.9167 42.7917H13.1667C12.2937 42.7917 11.4564 43.1385 10.8391 43.7558C10.2218 44.3731 9.875 45.2103 9.875 46.0833V65.8333C9.875 66.7063 10.2218 67.5436 10.8391 68.1609C11.4564 68.7782 12.2937 69.125 13.1667 69.125ZM55.9583 69.125C63.2198 69.125 69.125 63.2198 69.125 55.9583C69.125 48.6969 63.2198 42.7917 55.9583 42.7917C48.6969 42.7917 42.7917 48.6969 42.7917 55.9583C42.7917 63.2198 48.6969 69.125 55.9583 69.125Z" fill="#ED8F03"/>
</svg>
