<svg width="67" height="69" viewBox="0 0 67 69" fill="none" xmlns="http://www.w3.org/2000/svg">
<path d="M65.8231 68.9914H33.6311C33.5065 68.9914 33.3832 68.9671 33.2681 68.92C33.1531 68.8728 33.0486 68.8037 32.9606 68.7167C32.8727 68.6296 32.803 68.5262 32.7556 68.4126C32.7082 68.2989 32.684 68.177 32.6844 68.0541V68.0081V68.011L34.5778 30.7883C34.5919 30.5506 34.6975 30.3272 34.8729 30.1637C35.0483 30.0002 35.2804 29.9089 35.5217 29.9086H63.9296C64.4336 29.9086 64.8443 30.2967 64.8735 30.7855V30.7883L66.7582 67.8241C66.7757 67.8931 66.7873 67.9736 66.7873 68.057V68.0599C66.7873 68.3069 66.6879 68.5438 66.5109 68.7185C66.3339 68.8932 66.0938 68.9914 65.8435 68.9914H65.8406H65.8231ZM39.3203 37.7171C39.3261 39.0626 40.2204 40.1982 41.4526 40.5863L41.473 40.5921C42.4664 45.3387 45.8833 48.852 49.9441 48.852C54.0049 48.852 57.4161 45.3358 58.4036 40.6065C59.0644 40.4138 59.6405 40.0077 60.0395 39.4534C60.4386 38.899 60.6376 38.2285 60.6045 37.5493C60.5715 36.8701 60.3084 36.2215 59.8573 35.7074C59.4062 35.1934 58.7934 34.8436 58.1169 34.7143C57.4405 34.585 56.7397 34.6835 56.1267 34.9942C55.5138 35.3048 55.0243 35.8095 54.7366 36.4274C54.449 37.0454 54.3799 37.7407 54.5403 38.402C54.7008 39.0633 55.0816 39.6523 55.6217 40.0746L55.6275 40.0803C54.905 43.5246 52.63 46.0517 49.9325 46.0517C47.235 46.0517 44.9716 43.539 44.2433 40.1091C44.6546 39.7949 44.978 39.3825 45.1832 38.9108C45.3884 38.4391 45.4686 37.9236 45.4162 37.4129C45.3639 36.9022 45.1806 36.4131 44.8838 35.9915C44.587 35.57 44.1863 35.23 43.7196 35.0034C43.2529 34.7769 42.7354 34.6714 42.2159 34.6967C41.6964 34.7221 41.192 34.8775 40.7502 35.1484C40.3084 35.4193 39.9437 35.7967 39.6905 36.245C39.4373 36.6934 39.3039 37.198 39.3028 37.7113V37.72L39.3203 37.7171ZM0.946744 65.32C0.818124 65.3198 0.690893 65.2937 0.572815 65.2434C0.454737 65.1931 0.34829 65.1195 0.259968 65.0272C0.171646 64.9349 0.103302 64.8259 0.0591078 64.7067C0.0149132 64.5874 -0.00420563 64.4606 0.00291812 64.3339V64.3367L2.63631 12.6011C2.65041 12.3634 2.75596 12.1399 2.93138 11.9764C3.10679 11.8129 3.33885 11.7217 3.58014 11.7213H10.0005C12.0134 4.82134 17.385 0.00283813 23.6306 0.00283813C29.8762 0.00283813 35.242 4.82421 37.2549 11.7156H43.0664C43.5675 11.7156 43.9811 12.1037 44.0074 12.5925V12.5953L44.7677 27.5712H35.5217C33.7505 27.5712 32.3057 28.9426 32.2154 30.6676V30.6762L30.453 65.3229L0.946744 65.32ZM31.892 16.3242C31.1344 16.8116 30.5564 17.5274 30.2439 18.365C29.9315 19.2027 29.9013 20.1174 30.1579 20.9734C30.4145 21.8293 30.9441 22.5806 31.668 23.1156C32.3919 23.6507 33.2714 23.9408 34.1758 23.943C35.1585 23.9472 36.1114 23.6108 36.8685 22.9925C37.6255 22.3742 38.1386 21.5133 38.3183 20.5598C38.4979 19.6063 38.3326 18.6209 37.8514 17.7753C37.3701 16.9298 36.6033 16.2778 35.6848 15.9332L35.6557 15.9246C34.9682 8.28284 29.8383 2.32871 23.6335 2.32871C17.4287 2.32871 12.2785 8.29434 11.5997 15.9505C10.722 16.2894 9.98541 16.9101 9.50884 17.7127C9.03227 18.5153 8.84346 19.4529 8.97285 20.3743C9.10224 21.2957 9.5423 22.1473 10.2221 22.7917C10.9018 23.4361 11.7817 23.8358 12.7198 23.9263C13.6578 24.0168 14.5995 23.7929 15.3928 23.2906C16.1862 22.7884 16.785 22.037 17.0928 21.1578C17.4005 20.2785 17.3993 19.3226 17.0893 18.4441C16.7792 17.5657 16.1784 16.8159 15.3838 16.3156L15.3663 16.307C15.8557 10.5512 19.3747 6.07196 23.6335 6.07196C27.8924 6.07196 31.4201 10.5656 31.9007 16.3328L31.892 16.3242ZM19.1067 11.7098H28.1371C27.7532 10.8154 27.1351 10.0377 26.3463 9.45674C25.5574 8.87574 24.6262 8.51226 23.6481 8.40359L23.6219 8.40071C21.5827 8.62209 19.8932 9.91009 19.1212 11.6782L19.1067 11.7127V11.7098ZM56.3907 37.6366C56.3796 37.4861 56.4001 37.3349 56.4509 37.1926C56.5017 37.0502 56.5816 36.9197 56.6858 36.8092C56.7899 36.6987 56.916 36.6106 57.0562 36.5503C57.1964 36.49 57.3477 36.4589 57.5006 36.4589C57.6535 36.4589 57.8047 36.49 57.9449 36.5503C58.0851 36.6106 58.2112 36.6987 58.3154 36.8092C58.4195 36.9197 58.4995 37.0502 58.5502 37.1926C58.601 37.3349 58.6215 37.4861 58.6104 37.6366C58.5858 37.91 58.4584 38.1643 58.2532 38.3496C58.0481 38.5349 57.7801 38.6376 57.502 38.6376C57.2239 38.6376 56.9559 38.5349 56.7508 38.3496C56.5457 38.1643 56.4182 37.91 56.3936 37.6366H56.3907ZM41.173 37.6366C41.173 37.4194 41.2382 37.207 41.3605 37.0264C41.4828 36.8458 41.6566 36.7051 41.8599 36.6219C42.0632 36.5388 42.287 36.5171 42.5028 36.5594C42.7187 36.6018 42.917 36.7064 43.0726 36.86C43.2282 37.0136 43.3342 37.2093 43.3771 37.4223C43.4201 37.6354 43.398 37.8562 43.3138 38.0569C43.2296 38.2576 43.087 38.4291 42.904 38.5498C42.721 38.6704 42.5058 38.7348 42.2857 38.7348C41.9926 38.7318 41.7126 38.6148 41.5064 38.4091C41.3002 38.2035 41.1846 37.9259 41.1846 37.6366H41.173ZM32.5037 19.9668C32.5037 19.5341 32.6779 19.1191 32.9879 18.8132C33.298 18.5072 33.7185 18.3353 34.1569 18.3353C34.5953 18.3353 35.0158 18.5072 35.3259 18.8132C35.6359 19.1191 35.81 19.5341 35.81 19.9668C35.81 20.3996 35.6359 20.8146 35.3259 21.1205C35.0158 21.4265 34.5953 21.5984 34.1569 21.5984C33.7185 21.5984 33.298 21.4265 32.9879 21.1205C32.6779 20.8146 32.5037 20.3996 32.5037 19.9668V19.9668ZM11.4483 19.9668C11.4317 19.7422 11.4623 19.5166 11.538 19.3042C11.6137 19.0917 11.733 18.897 11.8884 18.7321C12.0438 18.5671 12.232 18.4356 12.4412 18.3456C12.6504 18.2557 12.8761 18.2093 13.1043 18.2093C13.3325 18.2093 13.5583 18.2557 13.7675 18.3456C13.9767 18.4356 14.1649 18.5671 14.3203 18.7321C14.4756 18.897 14.5949 19.0917 14.6707 19.3042C14.7464 19.5166 14.7769 19.7422 14.7604 19.9668C14.7256 20.3763 14.5361 20.7579 14.2297 21.036C13.9232 21.3141 13.5221 21.4684 13.1058 21.4684C12.6895 21.4684 12.2883 21.3141 11.9819 21.036C11.6754 20.7579 11.486 20.3763 11.4512 19.9668H11.4483Z" fill="#ED8F03"/>
</svg>
