<svg width="81" height="72" viewBox="0 0 81 72" fill="none" xmlns="http://www.w3.org/2000/svg">
<path d="M6.84281 11.1277C18.0562 14.1891 29.2781 11.333 40.5 8.47265C52.7344 5.35499 64.9688 2.23593 77.2031 6.80343C79.5797 7.69078 81 10.0716 81 12.6084V56.1797C81 59.5406 77.4 61.7625 74.1516 60.8766C62.9437 57.8109 51.7219 60.6656 40.5 63.5203C28.1391 66.6422 15.9047 69.7641 3.79266 65.1938C1.41469 64.3078 0 61.9312 0 59.3859V15.8203C0 12.458 3.60141 10.2417 6.84281 11.1277ZM40.3734 49.5C46.7156 49.5 51.75 43.4531 51.75 35.8734C51.75 28.4203 46.7156 22.3734 40.3734 22.3734C34.2844 22.3734 29.1234 28.4203 29.1234 35.8734C29.1234 43.4531 34.2844 49.5 40.3734 49.5ZM8.87344 58.5H17.8734C17.8734 53.5359 13.9711 49.5 8.87344 49.5V58.5ZM8.87344 20.1234V29.1234C13.9711 29.1234 17.8734 25.2141 17.8734 20.1234H8.87344ZM72 42.6234C67.0359 42.6234 63 46.7859 63 51.75H72V42.6234ZM63 13.3734C63 18.4641 67.0359 22.3734 72 22.3734V13.3734H63Z" fill="#ED8F03"/>
</svg>
