<svg width="1008" height="890" viewBox="0 0 1008 890" fill="none" xmlns="http://www.w3.org/2000/svg">
<path fill-rule="evenodd" clip-rule="evenodd" d="M922 643L956.31 544.104C966.49 514.753 958.77 482.16 936.5 460.5L935.53 459.559C913.14 437.784 902.21 406.798 905.99 375.795L918.86 270.023C925.53 215.199 886.49 165.348 831.67 158.677C828.87 158.337 826.07 158.116 823.25 158.012L782 156.5L697.82 76.143C669.13 48.761 626.34 42.327 590.87 60.063L495.548 107.725C480.112 115.443 462.941 119.035 445.706 118.151L368.331 114.183C327.05 112.067 290.439 140.484 282.25 181L269.28 245.166C268.427 249.384 267.848 253.653 267.545 257.946L255.382 430.484C254.799 438.754 252.663 446.84 249.086 454.319L215.637 524.257C205.231 546.016 203.039 570.803 209.466 594.05L223 643H922Z" fill="#ED8F03"/>
<path fill-rule="evenodd" clip-rule="evenodd" d="M223 643L133.288 740.381C106.72 769.22 108.561 814.14 137.401 840.71C149.694 852.03 165.589 858.66 182.287 859.41L847.78 889.63C886.95 891.41 920.15 861.1 921.93 821.92C921.98 820.85 922 819.78 922 818.7V643H223Z" fill="#ED8F03" fill-opacity="0.25"/>
<mask id="mask0_53_57" style="mask-type:alpha" maskUnits="userSpaceOnUse" x="358" y="0" width="650" height="408">
<path d="M385.5 322V0H358.5V335.5C358.5 342.956 364.544 349 372 349H592.22C607.94 349 623.37 353.285 636.84 361.394L687.24 391.738C704.91 402.378 725.15 408 745.78 408H1007.5V381H745.78C730.06 381 714.63 376.715 701.16 368.606L650.76 338.262C633.09 327.622 612.85 322 592.22 322H385.5Z" fill="white"/>
</mask>
<g mask="url(#mask0_53_57)">
<path d="M385.5 322V0H358.5V335.5C358.5 342.956 364.544 349 372 349H592.22C607.94 349 623.37 353.285 636.84 361.394L687.24 391.738C704.91 402.378 725.15 408 745.78 408H1007.5V381H745.78C730.06 381 714.63 376.715 701.16 368.606L650.76 338.262C633.09 327.622 612.85 322 592.22 322H385.5Z" fill="#F0AD4E"/>
<path fill-rule="evenodd" clip-rule="evenodd" d="M889 373H1033V422H889V373ZM328 314H472V363H328V314ZM350.5 197.5V75H411L399.5 197.5H350.5ZM637.5 304L753.5 359V408C750.17 420.726 736.5 426.06 712.5 424C688.5 421.94 651.66 412.274 602 395L637.5 304Z" fill="#F0AD4E"/>
<path fill-rule="evenodd" clip-rule="evenodd" d="M526 409L194 90.5L165 501L519.5 438L526 409Z" fill="#FFEECD"/>
</g>
<mask id="mask1_53_57" style="mask-type:alpha" maskUnits="userSpaceOnUse" x="0" y="73" width="288" height="419">
<path d="M61.7071 485.94C126.961 512.273 216.704 442.537 262.153 330.18C307.603 217.823 291.547 105.393 226.293 79.06C161.039 52.727 71.296 122.463 25.847 234.82C-19.603 347.177 -3.54695 459.607 61.7071 485.94Z" fill="white"/>
</mask>
<g mask="url(#mask1_53_57)">
<path d="M163.036 501.127C233.133 494.965 281.435 392.087 270.922 271.343C260.408 150.599 195.061 57.7109 124.964 63.8729C54.8671 70.0349 6.5651 172.913 17.0781 293.657C27.5921 414.401 92.9391 507.289 163.036 501.127Z" fill="#F5CB76"/>
<path d="M281 424.5V442.5H173V424.5H122V404.5H227H334V424.5H281ZM279 424.5H227H175V440.5H279V424.5ZM173 422.5H227V406.5H124V422.5H173ZM229 422.5H281H332V406.5H229V422.5ZM149 139.5H96V155.5H199V139.5H149ZM149 137.5H201V157.5H96H-12V137.5H42V119.5H149V137.5ZM94 155.5V139.5H42H-10V155.5H94ZM147 137.5V121.5H44V137.5H94H147ZM40 184.5H147V204.5H40H-65V184.5H40ZM40 202.5V186.5H-63V202.5H40ZM42 202.5H145V186.5H42V202.5Z" fill="white"/>
<path d="M333 470.5H228V488.5H333V470.5Z" stroke="white" stroke-width="2"/>
<path d="M386 424.5H281V442.5H386V424.5Z" stroke="white" stroke-width="2"/>
<path d="M152.48 203.72C150.24 203.72 148.48 203.107 147.2 201.88C145.973 200.653 145.36 198.84 145.36 196.44V193.56H129.28C126.933 193.56 125.093 193.027 123.76 191.96C122.48 190.893 121.84 189.293 121.84 187.16C121.84 185.88 122.08 184.627 122.56 183.4C123.04 182.173 123.893 180.707 125.12 179L144.64 150.52C145.76 148.92 146.96 147.747 148.24 147C149.52 146.253 151.093 145.88 152.96 145.88C154.987 145.88 156.587 146.493 157.76 147.72C158.933 148.947 159.52 150.76 159.52 153.16V182.44H161.44C165.547 182.44 167.6 184.28 167.6 187.96C167.6 191.693 165.547 193.56 161.44 193.56H159.52V196.44C159.52 198.787 158.907 200.6 157.68 201.88C156.453 203.107 154.72 203.72 152.48 203.72ZM145.36 182.44V166.84L134.88 182.44H145.36ZM144 312.88C137.013 312.88 131.68 310.347 128 305.28C124.32 300.16 122.48 292.933 122.48 283.6C122.48 274.213 124.32 267.067 128 262.16C131.68 257.2 137.013 254.72 144 254.72C150.987 254.72 156.32 257.2 160 262.16C163.68 267.067 165.52 274.187 165.52 283.52C165.52 292.907 163.68 300.16 160 305.28C156.32 310.347 150.987 312.88 144 312.88ZM144 301.2C146.56 301.2 148.453 299.813 149.68 297.04C150.96 294.213 151.6 289.707 151.6 283.52C151.6 277.387 150.96 273.013 149.68 270.4C148.453 267.733 146.56 266.4 144 266.4C141.44 266.4 139.52 267.733 138.24 270.4C137.013 273.013 136.4 277.387 136.4 283.52C136.4 289.707 137.013 294.213 138.24 297.04C139.52 299.813 141.44 301.2 144 301.2ZM152.48 421.72C150.24 421.72 148.48 421.107 147.2 419.88C145.973 418.653 145.36 416.84 145.36 414.44V411.56H129.28C126.933 411.56 125.093 411.027 123.76 409.96C122.48 408.893 121.84 407.293 121.84 405.16C121.84 403.88 122.08 402.627 122.56 401.4C123.04 400.173 123.893 398.707 125.12 397L144.64 368.52C145.76 366.92 146.96 365.747 148.24 365C149.52 364.253 151.093 363.88 152.96 363.88C154.987 363.88 156.587 364.493 157.76 365.72C158.933 366.947 159.52 368.76 159.52 371.16V400.44H161.44C165.547 400.44 167.6 402.28 167.6 405.96C167.6 409.693 165.547 411.56 161.44 411.56H159.52V414.44C159.52 416.787 158.907 418.6 157.68 419.88C156.453 421.107 154.72 421.72 152.48 421.72ZM145.36 400.44V384.84L134.88 400.44H145.36Z" fill="#ED8F03"/>
</g>
<mask id="mask2_53_57" style="mask-type:alpha" maskUnits="userSpaceOnUse" x="174" y="424" width="684" height="418">
<path d="M784.39 764.78L807.35 781.01C807.51 781.12 807.67 781.24 807.82 781.37C810.46 783.63 810.76 787.61 808.5 790.25C805.79 793.42 801.39 794.55 797.48 793.08C771.5 783.35 756.51 776.32 752.5 772L691 718.5L613 699L608 801C601.66 801.56 596.83 801.89 593.5 802C563.5 803 539.169 803.37 523.222 803.61C507.228 803.86 488.431 803.61 461.186 802.78C458.648 802.7 453.478 802.14 445.677 801.1L456.156 691.741L391.724 757.16C386.59 762.37 380.9 767 374.756 770.97L316.243 808.79C309.537 813.12 302.08 816.16 294.257 817.75L175 842C173.254 827.79 179.087 814.95 192.5 803.5C204.206 793.51 243.198 786.73 271 785C273.657 784.83 296.562 766 339.713 728.489C341.234 727.167 342.661 725.743 343.987 724.225L417.649 639.888C435.422 619.538 460.809 607.429 487.809 606.423L526 605L534.539 566.46H513.741C498.277 566.46 485.741 553.924 485.741 538.46C485.741 535.383 486.249 532.327 487.242 529.416L507.972 468.681C517.092 441.96 542.199 424 570.43 424H584.42C608.16 424 627.41 443.246 627.41 466.986C627.41 471.958 626.54 476.892 624.86 481.569L578 611.5L704.75 657.891C721.92 664.177 737.04 675.05 748.46 689.329L783 732.5C813 731.167 829.33 732.833 832 737.5C834.21 741.375 842.06 749.963 855.54 763.26C858.22 765.9 858.24 770.21 855.6 772.89C854.69 773.82 853.52 774.46 852.25 774.75C844.51 776.49 836.4 774.6 830.23 769.62L824.5 765C803.97 766.12 790.97 766.12 785.5 765C785.13 764.92 784.76 764.85 784.39 764.78Z" fill="white"/>
</mask>
<g mask="url(#mask2_53_57)">
<path d="M784.39 764.78L807.35 781.01C807.51 781.12 807.67 781.24 807.82 781.37C810.46 783.63 810.76 787.61 808.5 790.25C805.79 793.42 801.39 794.55 797.48 793.08C771.5 783.35 756.51 776.32 752.5 772L691 718.5L613 699L608 801C601.66 801.56 596.83 801.89 593.5 802C563.5 803 539.169 803.37 523.222 803.61C507.228 803.86 488.431 803.61 461.186 802.78C458.648 802.7 453.478 802.14 445.677 801.1L456.156 691.741L391.724 757.16C386.59 762.37 380.9 767 374.756 770.97L316.243 808.79C309.537 813.12 302.08 816.16 294.257 817.75L175 842C173.254 827.79 179.087 814.95 192.5 803.5C204.206 793.51 243.198 786.73 271 785C273.657 784.83 296.562 766 339.713 728.489C341.234 727.167 342.661 725.743 343.987 724.225L417.649 639.888C435.422 619.538 460.809 607.429 487.809 606.423L526 605L534.539 566.46H513.741C498.277 566.46 485.741 553.924 485.741 538.46C485.741 535.383 486.249 532.327 487.242 529.416L507.972 468.681C517.092 441.96 542.199 424 570.43 424H584.42C608.16 424 627.41 443.246 627.41 466.986C627.41 471.958 626.54 476.892 624.86 481.569L578 611.5L704.75 657.891C721.92 664.177 737.04 675.05 748.46 689.329L783 732.5C813 731.167 829.33 732.833 832 737.5C834.21 741.375 842.06 749.963 855.54 763.26C858.22 765.9 858.24 770.21 855.6 772.89C854.69 773.82 853.52 774.46 852.25 774.75C844.51 776.49 836.4 774.6 830.23 769.62L824.5 765C803.97 766.12 790.97 766.12 785.5 765C785.13 764.92 784.76 764.85 784.39 764.78Z" fill="#FFCDCD"/>
<path fill-rule="evenodd" clip-rule="evenodd" d="M503 603.5C512 618.833 527 627.5 548 629.5C569 631.5 584.33 626.5 594 614.5L700 635.906L655.5 717.5L633 714.5L613.31 802.48L429.054 815L456.693 693.099L429.054 744.865L352 659.284C385.289 626.557 414.743 606.797 440.361 600.003C465.979 593.21 486.859 594.375 503 603.5Z" fill="#FFF9D6"/>
<path fill-rule="evenodd" clip-rule="evenodd" d="M612.69 475.384L633 480.244C633.18 514.746 624.12 529.736 605.82 525.214C596.67 522.953 591.49 517.388 590.28 508.519C582.59 514.794 574.59 516.513 566.27 513.673C549.399 507.915 548.615 491.024 563.92 463L613 474.703C612.9 474.931 612.79 475.158 612.69 475.384Z" fill="#353535"/>
</g>
<mask id="mask3_53_57" style="mask-type:alpha" maskUnits="userSpaceOnUse" x="499" y="414" width="143" height="70">
<path d="M499 447.967L642 484C636.07 478.413 633.24 474.149 633.5 471.207C636.45 437.855 617.94 427.317 579.96 419.071C541.796 410.785 530.15 409.851 513.879 438.145C512.503 440.538 507.544 443.812 499 447.967Z" fill="white"/>
</mask>
<g mask="url(#mask3_53_57)">
<path d="M499 447.967L642 484C636.07 478.413 633.24 474.149 633.5 471.207C636.45 437.855 617.94 427.317 579.96 419.071C541.796 410.785 530.15 409.851 513.879 438.145C512.503 440.538 507.544 443.812 499 447.967Z" fill="#3C3CA0"/>
<path fill-rule="evenodd" clip-rule="evenodd" d="M528 437L636.5 466L639.5 454.5L532 422L528 437Z" fill="#26266F"/>
<path d="M522.5 443C533.27 443 542 434.27 542 423.5C542 412.73 533.27 404 522.5 404C511.73 404 503 412.73 503 423.5C503 434.27 511.73 443 522.5 443Z" fill="#F5CB76"/>
<path d="M522.5 438C531.06 438 538 431.508 538 423.5C538 415.492 531.06 409 522.5 409C513.94 409 507 415.492 507 423.5C507 431.508 513.94 438 522.5 438Z" fill="#FFEECD"/>
<path d="M516.331 473.876C514.213 468.869 511.145 466.5 507 466.5V463.5C512.174 463.5 516.105 466.342 518.685 471.794C528.72 465.814 537.147 467.996 543.287 478.228C543.713 478.939 543.483 479.86 542.772 480.286C542.062 480.712 541.14 480.482 540.714 479.772C535.217 470.61 528.272 469.081 519.116 475.061L498.373 510.157L510.534 512.528C511.347 512.686 511.877 513.474 511.719 514.287C511.56 515.1 510.773 515.631 509.96 515.472L495.713 512.695C494.696 512.497 494.182 511.352 494.709 510.46L516.331 473.876ZM528 488C525.791 488 524 486.209 524 484C524 481.791 525.791 480 528 480C530.21 480 532 481.791 532 484C532 486.209 530.21 488 528 488ZM507 482C504.791 482 503 480.209 503 478C503 475.791 504.791 474 507 474C509.21 474 511 475.791 511 478C511 480.209 509.21 482 507 482ZM500.641 532.666C496.089 531.424 493.232 527.656 494.259 524.251C495.286 520.846 499.808 519.092 504.36 520.334C508.911 521.576 511.769 525.344 510.742 528.749C509.715 532.154 505.193 533.908 500.641 532.666ZM489.093 545.981C489.379 545.204 490.242 544.806 491.019 545.092C491.796 545.379 492.194 546.241 491.908 547.019L488.408 556.519C488.122 557.296 487.259 557.694 486.482 557.408C485.705 557.121 485.306 556.259 485.593 555.481L489.093 545.981ZM495.093 547.981C495.379 547.204 496.242 546.806 497.019 547.092C497.796 547.379 498.194 548.241 497.908 549.019L494.408 558.519C494.122 559.296 493.259 559.694 492.482 559.408C491.705 559.121 491.306 558.259 491.593 557.481L495.093 547.981ZM501.093 549.981C501.379 549.204 502.242 548.806 503.019 549.092C503.796 549.379 504.194 550.241 503.908 551.019L500.408 560.519C500.122 561.296 499.259 561.694 498.482 561.408C497.705 561.121 497.306 560.259 497.593 559.481L501.093 549.981Z" fill="#353535"/>
<path fill-rule="evenodd" clip-rule="evenodd" d="M667 155.5V175.5H562H454V155.5H474V135.5H579H686V155.5H667ZM579 196.5H686V216.5H579V196.5ZM336 560.5V579.5H228V560.5H175V540.5H280H387V560.5H336ZM908 306.5H962V326.5H857H749V306.5H696V286.5H801H908V306.5ZM829 533H900V553H793V534H722V514H829V533Z" fill="#8B8BB5"/>
<path fill-rule="evenodd" clip-rule="evenodd" d="M578 337H587V357H578V337ZM804 395H813V415H804V395Z" fill="#8B8BB5"/>
<path d="M561 156.5H474V154.5H580V135.5H582V154.5H667V156.5H563V175.5H561V156.5ZM856 307.5H749.5C748.95 307.5 748.5 307.052 748.5 306.5C748.5 305.948 748.95 305.5 749.5 305.5H802V286.5H804V305.5H908C908.55 305.5 909 305.948 909 306.5C909 307.052 908.55 307.5 908 307.5H858V326.5H856V307.5ZM793 534.5C792.45 534.5 792 534.052 792 533.5C792 532.948 792.45 532.5 793 532.5H829C829.55 532.5 830 532.948 830 533.5C830 534.052 829.55 534.5 829 534.5H793ZM280 559.5V540.5H282V559.5H336V561.5H229V559.5H280Z" fill="#353535"/>
</g>
</svg>
