<svg width="86" height="105" viewBox="0 0 86 105" fill="none" xmlns="http://www.w3.org/2000/svg">
<path d="M46.0638 19.1394L39.1612 19.1253C23.4163 19.0876 9.74775 31.8804 9.63946 47.3757V65.2206C9.63946 68.9403 9.16862 72.5705 7.13929 75.6639L5.78797 77.7262C3.7304 80.8526 5.94335 85.0431 9.63946 85.0431H75.6985C79.3946 85.0431 81.6029 80.8526 79.55 77.7262L78.1987 75.6639C76.1741 72.5705 75.6985 68.9356 75.6985 65.2159V47.3805C75.5102 31.8804 61.8087 19.177 46.0638 19.1394ZM56.7943 85.0431C56.7943 88.7893 55.3061 92.3821 52.6571 95.0311C50.0081 97.6801 46.4153 99.1683 42.669 99.1683C38.9228 99.1683 35.3299 97.6801 32.6809 95.0311C30.0319 92.3821 28.5438 88.7893 28.5438 85.0431" fill="#ED8F03"/>
<path d="M56.7943 85.0431C56.7943 88.7893 55.3061 92.3821 52.6571 95.0311C50.0081 97.6801 46.4153 99.1683 42.669 99.1683C38.9228 99.1683 35.3299 97.6801 32.6809 95.0311C30.0319 92.3821 28.5438 88.7893 28.5438 85.0431M46.0638 19.1394L39.1612 19.1253C23.4163 19.0876 9.74775 31.8804 9.63946 47.3757V65.2206C9.63946 68.9403 9.16862 72.5705 7.13929 75.6639L5.78797 77.7262C3.7304 80.8526 5.94335 85.0431 9.63946 85.0431H75.6985C79.3946 85.0431 81.6029 80.8526 79.55 77.7262L78.1987 75.6639C76.1741 72.5705 75.6985 68.9356 75.6985 65.2159V47.3805C75.5102 31.8804 61.8087 19.177 46.0638 19.1394V19.1394Z" stroke="#ED8F03" stroke-width="10" stroke-linecap="round" stroke-linejoin="round"/>
<path d="M42.6693 5C45.1668 5 47.562 5.99213 49.328 7.75813C51.094 9.52412 52.0861 11.9193 52.0861 14.4168V19.1252H33.2524V14.4168C33.2524 11.9193 34.2446 9.52412 36.0106 7.75813C37.7766 5.99213 40.1718 5 42.6693 5Z" fill="#ED8F03" stroke="#ED8F03" stroke-width="10" stroke-linecap="round" stroke-linejoin="round"/>
</svg>
