<svg width="67" height="67" viewBox="0 0 67 67" fill="none" xmlns="http://www.w3.org/2000/svg">
<path d="M59.3423 30.6022C60.6655 32.3331 60.6655 34.6697 59.3423 36.3977C55.1743 41.8387 45.1746 53.0416 33.4998 53.0416C21.8251 53.0416 11.8253 41.8387 7.65735 36.3977C7.01354 35.569 6.66406 34.5494 6.66406 33.5C6.66406 32.4505 7.01354 31.431 7.65735 30.6022C11.8253 25.1613 21.8251 13.9583 33.4998 13.9583C45.1746 13.9583 55.1743 25.1613 59.3423 30.6022V30.6022Z" stroke="#ED8F03" stroke-width="5" stroke-linecap="round" stroke-linejoin="round"/>
<path d="M33.5 41.875C38.1254 41.875 41.875 38.1254 41.875 33.5C41.875 28.8746 38.1254 25.125 33.5 25.125C28.8746 25.125 25.125 28.8746 25.125 33.5C25.125 38.1254 28.8746 41.875 33.5 41.875Z" stroke="#ED8F03" stroke-width="5" stroke-linecap="round" stroke-linejoin="round"/>
</svg>
