<svg width="45" height="50" viewBox="0 0 45 50" fill="none" xmlns="http://www.w3.org/2000/svg">
<path d="M4.28125 3.3125C3.40272 3.3125 2.56017 3.66149 1.93896 4.28271C1.31774 4.90392 0.96875 5.74647 0.96875 6.625V9.9375C0.96875 10.816 1.31774 11.6586 1.93896 12.2798C2.56017 12.901 3.40272 13.25 4.28125 13.25H5.9375V43.0625C5.9375 44.8196 6.63549 46.5047 7.87792 47.7471C9.12035 48.9895 10.8054 49.6875 12.5625 49.6875H32.4375C34.1946 49.6875 35.8797 48.9895 37.1221 47.7471C38.3645 46.5047 39.0625 44.8196 39.0625 43.0625V13.25H40.7188C41.5973 13.25 42.4398 12.901 43.061 12.2798C43.6823 11.6586 44.0312 10.816 44.0312 9.9375V6.625C44.0312 5.74647 43.6823 4.90392 43.061 4.28271C42.4398 3.66149 41.5973 3.3125 40.7188 3.3125H29.125C29.125 2.43397 28.776 1.59142 28.1548 0.970209C27.5336 0.348995 26.691 0 25.8125 0L19.1875 0C18.309 0 17.4664 0.348995 16.8452 0.970209C16.224 1.59142 15.875 2.43397 15.875 3.3125H4.28125ZM14.2188 16.5625C14.658 16.5625 15.0793 16.737 15.3899 17.0476C15.7005 17.3582 15.875 17.7795 15.875 18.2188V41.4062C15.875 41.8455 15.7005 42.2668 15.3899 42.5774C15.0793 42.888 14.658 43.0625 14.2188 43.0625C13.7795 43.0625 13.3582 42.888 13.0476 42.5774C12.737 42.2668 12.5625 41.8455 12.5625 41.4062V18.2188C12.5625 17.7795 12.737 17.3582 13.0476 17.0476C13.3582 16.737 13.7795 16.5625 14.2188 16.5625ZM22.5 16.5625C22.9393 16.5625 23.3605 16.737 23.6711 17.0476C23.9818 17.3582 24.1562 17.7795 24.1562 18.2188V41.4062C24.1562 41.8455 23.9818 42.2668 23.6711 42.5774C23.3605 42.888 22.9393 43.0625 22.5 43.0625C22.0607 43.0625 21.6395 42.888 21.3289 42.5774C21.0182 42.2668 20.8438 41.8455 20.8438 41.4062V18.2188C20.8438 17.7795 21.0182 17.3582 21.3289 17.0476C21.6395 16.737 22.0607 16.5625 22.5 16.5625ZM32.4375 18.2188V41.4062C32.4375 41.8455 32.263 42.2668 31.9524 42.5774C31.6418 42.888 31.2205 43.0625 30.7812 43.0625C30.342 43.0625 29.9207 42.888 29.6101 42.5774C29.2995 42.2668 29.125 41.8455 29.125 41.4062V18.2188C29.125 17.7795 29.2995 17.3582 29.6101 17.0476C29.9207 16.737 30.342 16.5625 30.7812 16.5625C31.2205 16.5625 31.6418 16.737 31.9524 17.0476C32.263 17.3582 32.4375 17.7795 32.4375 18.2188Z" fill="#D9534F"/>
</svg>
