<svg width="74" height="60" viewBox="0 0 74 60" fill="none" xmlns="http://www.w3.org/2000/svg">
<path d="M74 7.1171C71.2787 8.31979 68.3553 9.13242 65.282 9.49973C68.4531 7.60725 70.8255 4.62871 71.9566 1.11987C68.9773 2.88487 65.7166 4.12724 62.3163 4.79297C60.0297 2.35788 57.001 0.743866 53.7004 0.201508C50.3999 -0.34085 47.0121 0.218793 44.0631 1.79355C41.1142 3.3683 38.7689 5.87007 37.3916 8.91043C36.0142 11.9508 35.6818 15.3596 36.446 18.6077C30.4092 18.3054 24.5036 16.7405 19.1125 14.0144C13.7213 11.2884 8.96513 7.46218 5.15256 2.78414C3.84894 5.02701 3.09936 7.62743 3.09936 10.3969C3.0979 12.89 3.71347 15.345 4.89144 17.5439C6.06941 19.7429 7.77336 21.6178 9.85211 23.0024C7.44131 22.9259 5.08371 22.2762 2.97551 21.1074V21.3024C2.97527 24.7991 4.18799 28.1883 6.40789 30.8947C8.62779 33.6012 11.7181 35.4582 15.1546 36.1508C12.9182 36.7545 10.5735 36.8434 8.29754 36.4109C9.2671 39.4196 11.1557 42.0506 13.699 43.9356C16.2423 45.8206 19.3129 46.8652 22.4809 46.9231C17.103 51.1339 10.4612 53.4179 3.62406 53.4079C2.41294 53.4082 1.20284 53.3377 0 53.1966C6.94007 57.6472 15.0188 60.0091 23.2696 60C51.1997 60 66.4683 36.9277 66.4683 16.9174C66.4683 16.2673 66.452 15.6107 66.4227 14.9606C69.3927 12.8184 71.9563 10.1658 73.9935 7.12685L74 7.1171V7.1171Z" fill="#ED8F03"/>
</svg>
