<svg width="246" height="64" viewBox="0 0 246 64" fill="none" xmlns="http://www.w3.org/2000/svg">
<g clip-path="url(#clip0_7_2)">
<path d="M4.23047 7.81641H45.2578V14.0742H28.1367V57H21.0703V14.0742H4.23047V7.81641ZM48.9141 24.6562V32.0742L49.2656 31.5117C52.3594 26.5195 55.4531 24.0234 58.5469 24.0234C60.9609 24.0234 63.4805 25.2422 66.1055 27.6797L62.7305 33.3047C60.5039 31.1953 58.4414 30.1406 56.543 30.1406C54.4805 30.1406 52.6875 31.125 51.1641 33.0938C49.6641 35.0625 48.9141 37.3945 48.9141 40.0898V57H42.4805V24.6562H48.9141ZM90.9258 37.5586V51.3047C90.9258 52.4062 91.3008 52.957 92.0508 52.957C92.8242 52.957 94.0312 52.3828 95.6719 51.2344V55.1367C94.2188 56.0742 93.0469 56.707 92.1562 57.0352C91.2891 57.3867 90.375 57.5625 89.4141 57.5625C86.6719 57.5625 85.0547 56.4844 84.5625 54.3281C81.8438 56.4375 78.9492 57.4922 75.8789 57.4922C73.6289 57.4922 71.7539 56.7539 70.2539 55.2773C68.7539 53.7773 68.0039 51.9023 68.0039 49.6523C68.0039 47.6133 68.7305 45.7969 70.1836 44.2031C71.6602 42.5859 73.7461 41.3086 76.4414 40.3711L84.6328 37.5586V35.8359C84.6328 31.9453 82.6875 30 78.7969 30C75.3047 30 71.9062 31.8047 68.6016 35.4141V28.418C71.0859 25.4883 74.6602 24.0234 79.3242 24.0234C82.8164 24.0234 85.6172 24.9375 87.7266 26.7656C88.4297 27.3516 89.0625 28.1367 89.625 29.1211C90.1875 30.082 90.5391 31.0547 90.6797 32.0391C90.8438 33 90.9258 34.8398 90.9258 37.5586ZM84.6328 50.6016V41.0039L80.3438 42.6562C78.1641 43.5234 76.6172 44.4023 75.7031 45.293C74.8125 46.1602 74.3672 47.25 74.3672 48.5625C74.3672 49.8984 74.7891 50.9883 75.6328 51.832C76.5 52.6758 77.6133 53.0977 78.9727 53.0977C81.0117 53.0977 82.8984 52.2656 84.6328 50.6016ZM118.594 24.6562H125.52L111.246 57.5625H109.102L94.4766 24.6562H101.473L110.191 44.5547L118.594 24.6562ZM156.457 41.3906H133.711C133.875 44.4844 134.906 46.9453 136.805 48.7734C138.727 50.6016 141.199 51.5156 144.223 51.5156C148.441 51.5156 152.332 50.2031 155.895 47.5781V53.8359C153.926 55.1484 151.969 56.0859 150.023 56.6484C148.102 57.2109 145.84 57.4922 143.238 57.4922C139.676 57.4922 136.793 56.7539 134.59 55.2773C132.387 53.8008 130.617 51.8203 129.281 49.3359C127.969 46.8281 127.312 43.9336 127.312 40.6523C127.312 35.7305 128.707 31.7344 131.496 28.6641C134.285 25.5703 137.906 24.0234 142.359 24.0234C146.648 24.0234 150.07 25.5234 152.625 28.5234C155.18 31.5234 156.457 35.543 156.457 40.582V41.3906ZM133.852 37.5586H150.129C149.965 35.0039 149.203 33.0352 147.844 31.6523C146.484 30.2695 144.656 29.5781 142.359 29.5781C140.062 29.5781 138.176 30.2695 136.699 31.6523C135.246 33.0352 134.297 35.0039 133.852 37.5586ZM163.559 7.88672H169.957V57H163.559V7.88672ZM182.543 11.0508C183.598 11.0508 184.5 11.4141 185.25 12.1406C186 12.8672 186.375 13.7578 186.375 14.8125C186.375 15.8437 186 16.7344 185.25 17.4844C184.5 18.2344 183.598 18.6094 182.543 18.6094C181.559 18.6094 180.691 18.2344 179.941 17.4844C179.191 16.7109 178.816 15.8203 178.816 14.8125C178.816 13.8281 179.191 12.9609 179.941 12.2109C180.691 11.4375 181.559 11.0508 182.543 11.0508ZM179.379 24.6562H185.777V57H179.379V24.6562ZM193.477 54.6797V47.7891C195.281 49.0547 197.121 50.0859 198.996 50.8828C200.895 51.6562 202.488 52.043 203.777 52.043C205.113 52.043 206.262 51.7148 207.223 51.0586C208.184 50.4023 208.664 49.6172 208.664 48.7031C208.664 47.7656 208.348 46.9922 207.715 46.3828C207.105 45.75 205.77 44.8477 203.707 43.6758C199.582 41.3789 196.875 39.4219 195.586 37.8047C194.32 36.1641 193.688 34.3828 193.688 32.4609C193.688 29.9766 194.648 27.9492 196.57 26.3789C198.516 24.8086 201.012 24.0234 204.059 24.0234C207.223 24.0234 210.469 24.9141 213.797 26.6953V33.0234C210 30.7266 206.895 29.5781 204.48 29.5781C203.238 29.5781 202.23 29.8477 201.457 30.3867C200.707 30.9023 200.332 31.5938 200.332 32.4609C200.332 33.2109 200.672 33.9258 201.352 34.6055C202.055 35.2852 203.273 36.1055 205.008 37.0664L207.293 38.3672C212.684 41.4141 215.379 44.7891 215.379 48.4922C215.379 51.1406 214.336 53.3203 212.25 55.0312C210.188 56.7188 207.527 57.5625 204.27 57.5625C202.348 57.5625 200.637 57.3633 199.137 56.9648C197.637 56.543 195.75 55.7812 193.477 54.6797ZM218.227 29.7891L230.25 17.9766V24.6562H240.48V30.4219H230.25V46.2773C230.25 49.9805 231.785 51.832 234.855 51.832C237.152 51.832 239.578 51.0586 242.133 49.5117V55.4883C239.672 56.8711 236.988 57.5625 234.082 57.5625C231.152 57.5625 228.715 56.707 226.77 54.9961C226.16 54.4805 225.656 53.9062 225.258 53.2734C224.859 52.6172 224.52 51.7734 224.238 50.7422C223.98 49.6875 223.852 47.6953 223.852 44.7656V30.4219H218.227V29.7891Z" fill="#ED8F03"/>
</g>
<defs>
<clipPath id="clip0_7_2">
<rect width="246" height="64" fill="white"/>
</clipPath>
</defs>
</svg>
