<svg width="150" height="150" viewBox="0 0 150 150" fill="none" xmlns="http://www.w3.org/2000/svg">
<path d="M133.225 25.3437C122.225 21.7375 93.75 12.4062 93.75 12.5C93.75 17.4728 91.7746 22.2419 88.2582 25.7582C84.7419 29.2745 79.9728 31.25 75 31.25C70.0272 31.25 65.258 29.2745 61.7417 25.7582C58.2254 22.2419 56.25 17.4728 56.25 12.5C56.25 12.4062 27.775 21.7375 16.7687 25.3437C15.5217 25.7525 14.4366 26.5463 13.6695 27.6111C12.9024 28.6758 12.4929 29.9565 12.5 31.2687V54.4937C12.5003 55.4431 12.7168 56.3799 13.1332 57.2331C13.5495 58.0863 14.1548 58.8334 14.903 59.4177C15.6512 60.0021 16.5227 60.4083 17.4513 60.6056C18.38 60.8028 19.3414 60.786 20.2625 60.5562L37.5 56.25V131.25C37.5 132.908 38.1585 134.497 39.3306 135.669C40.5027 136.841 42.0924 137.5 43.75 137.5H106.25C107.908 137.5 109.497 136.841 110.669 135.669C111.842 134.497 112.5 132.908 112.5 131.25V56.25L129.737 60.5562C130.659 60.786 131.62 60.8028 132.549 60.6056C133.477 60.4083 134.349 60.0021 135.097 59.4177C135.845 58.8334 136.45 58.0863 136.867 57.2331C137.283 56.3799 137.5 55.4431 137.5 54.4937V31.2687C137.507 29.9557 137.096 28.6744 136.328 27.6096C135.56 26.5448 134.473 25.7514 133.225 25.3437Z" fill="#ED8F03"/>
</svg>
