<svg width="141" height="141" viewBox="0 0 141 141" fill="none" xmlns="http://www.w3.org/2000/svg">
<path d="M72.1502 103.371C91.2028 103.371 106.682 88.7573 107.341 70.5C106.682 52.2427 91.2028 37.6294 72.1502 37.6294C53.0997 37.6294 37.6162 52.2427 36.9662 70.5C37.614 88.7573 53.0975 103.371 72.1502 103.371Z" fill="#ED8F03"/>
<path d="M72.1523 22.0312C45.3844 22.0312 23.6814 43.732 23.6814 70.5C23.6814 97.2658 45.3866 118.969 72.1523 118.969C98.9181 118.969 120.621 97.2658 120.621 70.5C120.621 43.732 98.9181 22.0312 72.1523 22.0312ZM72.1501 105.75C52.6811 105.75 36.8979 90.5022 36.8979 71.6875C36.8979 71.2865 36.953 70.8966 36.9662 70.5C36.953 70.1034 36.8979 69.7113 36.8979 69.3125C36.8979 50.4978 52.6833 35.25 72.1501 35.25C91.6192 35.25 107.4 50.4978 107.4 69.3125C107.4 69.7113 107.354 70.1034 107.343 70.5C107.356 70.8966 107.4 71.2865 107.4 71.6875C107.398 90.5022 91.6192 105.75 72.1501 105.75Z" fill="#ED8F03"/>
<path d="M7.66907 16.3494C8.19782 14.2762 9.24431 16.3251 9.24431 16.3251C9.24431 16.3251 9.61003 37.7836 11.9894 38.0171C14.3688 38.2506 12.5358 15.9374 15.3514 15.51C17.9687 15.0936 16.475 38.3718 18.8587 38.1361C21.2337 37.8849 21.6347 16.4353 21.6347 16.4353C21.6347 16.4353 22.6922 14.3886 23.2143 16.4463C29.6651 41.8043 24.4459 52.17 24.4459 52.17C24.4459 52.17 23.5646 54.3489 21.4717 54.3599C21.2756 54.3489 21.4232 114.584 21.41 122.683C21.4144 126.62 9.29278 126.499 9.29939 122.58C9.3082 114.481 9.54393 54.2519 9.35446 54.2563C7.25489 54.2563 6.37584 52.0796 6.37584 52.0796C6.37584 52.0796 1.17646 41.7205 7.66907 16.3494ZM122.538 15.4218C125.265 15.4152 136.581 23.5734 136.594 53.8928C136.607 63.5888 131.317 63.5866 131.326 69.6518C131.335 75.7059 131.368 123.862 131.368 123.862C131.368 123.862 125.565 127.843 121.251 123.677L121.172 16.2833C121.176 16.2855 121.161 15.4196 122.538 15.4218Z" fill="#ED8F03"/>
</svg>
